<?xml version="1.0" encoding="UTF-8"?>
<svg id="Layer_1" data-name="Layer 1" xmlns="http://www.w3.org/2000/svg" viewBox="0 0 697.16 283.86">
  <g id="Layer_1-2" data-name="Layer 1">
    <path d="M299.94,181.44c-.15-35.87-.28-78.31-.1-97.38.03-3.64.73-9.26,2.19-12.21,10.82-21.84,32.51-15.19,36.13-12.58,6.31,4.53,11.11,9.4,12.9,20.98.68,4.43.41,12.08.36,18.71" style="fill: none; stroke: #00c3ff; stroke-miterlimit: 10; stroke-width: 39px;"/>
    <path d="M168.53,41.96c-.2,77.33-1.71,74.97,4.1,92.41,5.45,12.35,9.53,15.62,16.44,21.07,6.8,3.47,12.16,6.63,23.81,6.77s16.32-2.23,24.87-7.49c9.35-6.99,13.8-14.89,16.35-22.52,3.63-15.26,3.27-21.07,1.82-88.27" style="fill: none; stroke: #00c3ff; stroke-miterlimit: 10; stroke-width: 39px;"/>
    <ellipse cx="440.24" cy="109.38" rx="49.29" ry="53.35" style="fill: none; stroke: #00c3ff; stroke-miterlimit: 10; stroke-width: 39px;"/>
    <line x1="390.85" y1="111.33" x2="392.16" y2="193.11" style="fill: none; stroke: #00c3ff; stroke-miterlimit: 10; stroke-width: 39px;"/>
    <path d="M531.99.31c0,89.96.13,146.51,0,179.81" style="fill: none; stroke: #00c3ff; stroke-miterlimit: 10; stroke-width: 39px;"/>
    <path d="M612.49,143.31c-4.77-.95-7.63-3-9.67-4.63.03.02-1.36-2.86-.94-4.11l1.9,1.46c-.67-.55-1.31-1.12-1.94-1.71-.63-.59-1.19-1.26-1.83-1.84-2.98-2.71,1.18,2.61.19.41-.4-.9-1.19-1.97-1.75-2.77-2.29-3.26,1.16,3.51-.33-.44s-2.77-8.01-3.82-12.19c-.78-3.09.28,1.48.2,1.86.21-.93-.2-2.52-.23-3.49-.07-2.48.05-4.97.23-7.45.1-1.36.23-2.71.35-4.06.36-4.06.12-.6-.05.16.59-2.67,1.3-5.23,2.08-7.85,1.5-4.96-1.86,3.31.45-1.24.47-.93.9-1.86,1.39-2.78,1.38-2.61,3-5.02,4.6-7.49,1.69-2.61-.62.85-.65.78-.1-.19,1.72-2.03,1.96-2.29.78-.85,5.34-4.86,1.81-2.08-3.35,2.64.42-.04,1.45-.59.41-.22,2.91-1.13,3.03-1.48l-2.3.96c.86-.35,1.72-.68,2.59-.99,2.41-.86,4.86-1.6,7.35-2.19,1.07-.25,2.15-.44,3.22-.68,5.1-1.16-3.78-.16,1.57-.17,2.13,0,4.23-.15,6.37-.03,1.04.06,2.08.16,3.12.25,4.51.37-4.43-.96.2.08,2.84.64,5.66,1.19,8.44,2.07.94.29,1.85.65,2.78.94,3.77,1.19-3.14-1.67,1.31.65,1.04.54,2.01,1.18,3.04,1.75,3.6,2-2.58-2.86.42.34.74.79,2.64,2.09,2.97,3.14l-1.33-1.72c.53.75,1.04,1.51,1.53,2.3.47.76.92,1.54,1.35,2.33.28.51,2.71,5.42,1.21,2.3s.14.51.32,1.01c.36,1.02.7,2.05,1.01,3.08.77,2.53,1.64,5.17,2.17,7.77v-10.37c.82-2.61,2.17-4.9,4.04-6.88,3.06-2.23,3.76-2.77,2.09-1.62-1.2.53-2.38,1.32-3.55,1.92-3.41,1.77,3.9-1.31.37-.19-1.5.48-2.97,1.03-4.5,1.44-.72.2-1.44.37-2.16.53-2.11.4-1.37.34,2.23-.19-.43-.14-1.94.09-2.44.1-2.24.03-4.49-.1-6.72-.19-9.81-.4-19.63-1.04-29.45-.4-11.89.77-24.69,2.72-34.93,9.31-13.24,8.52-18.87,21.82-19.59,37.35-.48,10.2,8.31,19.96,18.5,19.5,10.97-.49,18.99-8.57,19.5-19.5h0c.02-.49.25-1.68.14-2.24.72,3.65-.82,3.91-.13,1.56.24-.82,1.86-5.25.32-1.8s.71-.81,1.12-1.64c.99-1.98,1.23,1.23-1.47,1.88.45-.11,1.51-1.53,1.8-1.85,1.83-2.06-4.37,2.59-.51.41,1.03-.58,2.09-1.14,3.1-1.74,2.41-1.44-1.92.84-2.15.86.69-.08,1.52-.57,2.2-.79,1.37-.46,2.76-.84,4.16-1.18s2.92-.6,4.39-.87c4.26-.77-5.04.5.41-.02,3.14-.3,6.3-.44,9.45-.49,6-.1,23.41-.3,29.41-.84,17.62-2.72,19.07-1.63,29.77-7.01,10.01-6.3,15.83-15.76,12.57-27.58-1.97-7.15-5.26-14.12-8.72-20.73-10.53-20.15-31.13-28.98-52.69-31.55-18.11-2.15-40.42,2.64-54.46,14.94-29.05,25.45-34.71,78.26-7.93,107.25,24.94,27,62.93,20.8,94.9,17.53,10.17-2.91,20.1-9.17,19.62-19.98-.46-10.23-7.85-17.21-18.77-16.79-14.65.56-29.58,3.88-44.25,3.04" style="fill: #00c3ff;"/>
    <path d="M98.11,68.96c2.41-11.09,1.79-20.39-2-28-4.07-8.18-12.67-15.31-20-17-24.82-5.73-52.16,2.95-52.17,6.42-.21,76.67,1.37,94.81,1.38,125.79,0,10.8,16.53,6.9,28.9,7.16" style="fill: none; stroke: #00c3ff; stroke-miterlimit: 10; stroke-width: 39px;"/>
    <path d="M36.11,77.96c41.35,0,56.19-1.36,65.05,3,6.85,3.37,13.79,7.38,18.07,14,4.72,7.28,8.13,15.15,8.13,26,0,9.8-3.5,16.68-6.77,22.85-1.82,4-10.17,11.62-18.53,15.62-6.18,1.45-6.04,3.9-52.32,3.9" style="fill: none; stroke: #00c3ff; stroke-miterlimit: 10; stroke-width: 39px;"/>
    <path d="M405.68,143.84c-.12,3.4-32.41-6.54-32.7-1.38-.87,15.47-3.89,46.26,3.69,70.54,1.87,6,9.4,3.29,6.72,20.07-2.71,16.96,2.89,14.34,3.62,20.66.12,1.06,5.25,38.07,5.62,27.85.33-9.36,6.63-10.31,9.05-29.44,1.42-11.21,2.33-26.19,5.37-33.55,7.99-19.4,4.33-28.02,4.62-36.04,1.25-35.11-7.3-35.41-3.42-35.27" style="fill: #00c3ff; stroke: #00c3ff; stroke-miterlimit: 10;"/>
  </g>
  <g id="Layer_2" data-name="Layer 2">
    <path d="M109.21,19.9c1.11,4.11,15.53,15.67,1.13,18.17-11.06,1.92-25.16-7.95-40.57-7.95-17.73,0-38.06,6.65-49.16,1.9-8.03-3.44-9.49,8.61-14.61,7.32s-.47-20.01-.47-22.84c0-7.52,22.02-15.03,56.35-12.49,18.03,2.27,43.95,3.41,47.33,15.9Z" style="fill: #fff; stroke: #00c3ff; stroke-miterlimit: 10; stroke-width: 7px;"/>
    <path d="M482.16,46c5.54,7.44,35.64,44.74,16.83,36.79-11.71-4.96-26.24-20.71-50.49-14.69-8.55,1.27-20.97-9.6-32.53-6.77-13.2,3.24-24.63,14.83-31.45,13.76-12.79-2.01,7.59-26.14,13.83-29.85,16.59-7.17,21.17-8.93,33.04-11.28,19.34.73,38.51-1.73,50.75,12.04h.01Z" style="fill: #fff; stroke: #00c3ff; stroke-miterlimit: 10; stroke-width: 7px;"/>
    <path d="M190.04,54.41c.25,4.71,5.75,18.22-.49,20.79-4.79,1.97-10.23-9.58-16.76-9.89-7.52-.35-19.31,7.13-24.1,4.08s-2.57-16.61-2.37-20.92c.4-8.6,9.86-18.92,24.53-13.17,7.52,2.95,18.43,4.76,19.19,19.11h0Z" style="fill: #fff; stroke: #00c3ff; stroke-miterlimit: 10; stroke-width: 7px;"/>
    <path d="M675.34,51c2.39,2.9,8.51,7.89,10.99,10.72,5.46,6.21,1.54,12.5-4.63,10.08-13.08-3.58-22.34-5.72-47.95-4.9-18.53.25-27.52-15.8-47.31-6.87-8.38,3.85-9.91,7.69-14.81,6.6.54-1.84-4.09-2.45-.82-7.36,4.08-6.12,11.33-9.58,15.53-15.53,6.76-8.78,20.09-11.18,41.96-9.08,18.86,1.81,23.07-3.27,37.23,6.18l9.81,10.17Z" style="fill: #fff; stroke: #00c3ff; stroke-miterlimit: 10; stroke-width: 7px;"/>
    <path d="M235.34,51.68c.16,3.96-3.93,15.83,2.21,17.31,4.71,1.13,8.91-9.1,15.08-10.05,7.1-1.1,18.93,3.88,23.22.82s1.04-14.15.49-17.72c-1.1-7.14-11-8.44-24.39-8.36-10.44.3-17.09,5.95-16.61,18.01h0Z" style="fill: #fff; stroke: #00c3ff; stroke-miterlimit: 10; stroke-width: 7px;"/>
    <path d="M457.02,132.62c13.83-6.7,14.76,12.33.69,23.11-11.43,6.72-25.86,3.9-34.96-.51-12.08-5.86-16.42-24.68-10.33-28.34,8.23-6.2,20.66,15.91,33.96,10.02l10.65-4.28Z" style="fill: #fff; stroke: #00c3ff; stroke-miterlimit: 10; stroke-width: 7px;"/>
    <path d="M97.94,129.56c16.19-11.28,19.37,7.95,3.32,23.49-13.26,10.53-31.2,12.24-42.8,10.61-15.4-2.16-22.71-20.1-15.66-25.79,9.4-8.98,26.96,9.74,42.59-.54l12.56-7.78Z" style="fill: #fff; stroke: #00c3ff; stroke-miterlimit: 10; stroke-width: 7px;"/>
  </g>
</svg>